<?xml version="1.0" standalone="no"?><svg xmlns:xlink="http://www.w3.org/1999/xlink" xmlns="http://www.w3.org/2000/svg" viewBox="0 0 1000 545.4590152851445" preserveAspectRatio="xMaxYMax slice"><g transform="scale(1.5365042684088577)"><rect x="0" y="0" width="650.8333333333333" height="355" fill="#ffffff"/><rect x="177.5" y="59.166666666666664" width="59.166666666666664" height="59.166666666666664" fill="#ffffff"/><rect x="207.08" y="88.75" width="29.58" height="29.58" fill="#ffffff"/><rect x="532.5" y="59.166666666666664" width="59.166666666666664" height="59.166666666666664" fill="#ffffff"/><rect x="532.5" y="88.75" width="29.58" height="29.58" fill="#ffffff"/><rect x="0" y="118.33333333333333" width="59.166666666666664" height="59.166666666666664" fill="#ffffff"/><rect x="0" y="118.33" width="29.58" height="29.58" fill="#ffffff"/><rect x="0" y="147.92" width="29.58" height="29.58" fill="#bfc9da"/><rect x="118.33333333333333" y="118.33333333333333" width="59.166666666666664" height="59.166666666666664" fill="#ffffff"/><rect x="118.33" y="147.92" width="29.58" height="29.58" fill="#ffffff"/><rect x="177.5" y="118.33333333333333" width="59.166666666666664" height="59.166666666666664" fill="#ffffff"/><rect x="177.5" y="118.33" width="29.58" height="29.58" fill="#98a8c3"/><rect x="207.08" y="118.33" width="29.58" height="29.58" fill="#ffffff"/><rect x="207.08" y="147.92" width="29.58" height="29.58" fill="#ffffff"/><rect x="236.66666666666666" y="118.33333333333333" width="59.166666666666664" height="59.166666666666664" fill="#ffffff"/><rect x="266.25" y="147.92" width="29.58" height="29.58" fill="#ffffff"/><rect x="473.3333333333333" y="118.33333333333333" width="59.166666666666664" height="59.166666666666664" fill="#ffffff"/><rect x="502.92" y="118.33" width="29.58" height="29.58" fill="#ffffff"/><rect x="502.92" y="147.92" width="29.58" height="29.58" fill="#ffffff"/><rect x="591.6666666666666" y="118.33333333333333" width="59.166666666666664" height="59.166666666666664" fill="#ffffff"/><rect x="591.67" y="118.33" width="29.58" height="29.58" fill="#dde2eb"/><rect x="591.67" y="147.92" width="29.58" height="29.58" fill="#ffffff"/><rect x="621.25" y="147.92" width="29.58" height="29.58" fill="#ffffff"/><rect x="0" y="177.5" width="59.166666666666664" height="59.166666666666664" fill="#ffffff"/><rect x="0" y="177.5" width="29.58" height="29.58" fill="#ffffff"/><rect x="0" y="207.08" width="29.58" height="29.58" fill="#afbbd1"/><rect x="29.58" y="207.08" width="29.58" height="29.58" fill="#4e6a99"/><rect x="118.33333333333333" y="177.5" width="59.166666666666664" height="59.166666666666664" fill="#ffffff"/><rect x="118.33" y="177.5" width="29.58" height="29.58" fill="#6b82a9"/><rect x="147.92" y="177.5" width="29.58" height="29.58" fill="#f6f7fa"/><rect x="118.33" y="207.08" width="29.58" height="29.58" fill="#3c5b8e"/><rect x="147.92" y="207.08" width="29.58" height="29.58" fill="#d2d9e5"/><rect x="236.66666666666666" y="177.5" width="59.166666666666664" height="59.166666666666664" fill="#ffffff"/><rect x="266.25" y="177.5" width="29.58" height="29.58" fill="#ffffff"/><rect x="236.67" y="207.08" width="29.58" height="29.58" fill="#d3dae5"/><rect x="295.8333333333333" y="177.5" width="59.166666666666664" height="59.166666666666664" fill="#ffffff"/><rect x="325.42" y="177.5" width="29.58" height="29.58" fill="#677fa7"/><rect x="295.83" y="207.08" width="29.58" height="29.58" fill="#ffffff"/><rect x="325.42" y="207.08" width="29.58" height="29.58" fill="#3c5b8e"/><rect x="355" y="177.5" width="59.166666666666664" height="59.166666666666664" fill="#ffffff"/><rect x="384.58" y="207.08" width="29.58" height="29.58" fill="#ffffff"/><rect x="532.5" y="177.5" width="59.166666666666664" height="59.166666666666664" fill="#ffffff"/><rect x="532.5" y="177.5" width="29.58" height="29.58" fill="#fefefe"/><rect x="562.08" y="207.08" width="29.58" height="29.58" fill="#fbfcfd"/><rect x="591.6666666666666" y="177.5" width="59.166666666666664" height="59.166666666666664" fill="#ffffff"/><rect x="621.25" y="177.5" width="29.58" height="29.58" fill="#7a8eb2"/><rect x="591.67" y="207.08" width="29.58" height="29.58" fill="#778db0"/><rect x="0" y="236.66666666666666" width="59.166666666666664" height="59.166666666666664" fill="#ffffff"/><rect x="29.58" y="236.67" width="29.58" height="29.58" fill="#ffffff"/><rect x="0" y="266.25" width="29.58" height="29.58" fill="#dce1eb"/><rect x="29.58" y="266.25" width="29.58" height="29.58" fill="#ffffff"/><rect x="59.166666666666664" y="236.66666666666666" width="59.166666666666664" height="59.166666666666664" fill="#ffffff"/><rect x="59.17" y="236.67" width="29.58" height="29.58" fill="#ffffff"/><rect x="88.75" y="236.67" width="29.58" height="29.58" fill="#ffffff"/><rect x="88.75" y="266.25" width="29.58" height="29.58" fill="#dfe4ed"/><rect x="177.5" y="236.66666666666666" width="59.166666666666664" height="59.166666666666664" fill="#ffffff"/><rect x="177.5" y="236.67" width="29.58" height="29.58" fill="#647ca5"/><rect x="207.08" y="236.67" width="29.58" height="29.58" fill="#ffffff"/><rect x="207.08" y="266.25" width="29.58" height="29.58" fill="#8598b8"/><rect x="355" y="236.66666666666666" width="59.166666666666664" height="59.166666666666664" fill="#ffffff"/><rect x="355" y="236.67" width="29.58" height="29.58" fill="#ffffff"/><rect x="384.58" y="236.67" width="29.58" height="29.58" fill="#ffffff"/><rect x="355" y="266.25" width="29.58" height="29.58" fill="#3a598d"/><rect x="384.58" y="266.25" width="29.58" height="29.58" fill="#446192"/><rect x="414.16666666666663" y="236.66666666666666" width="59.166666666666664" height="59.166666666666664" fill="#ffffff"/><rect x="414.17" y="236.67" width="29.58" height="29.58" fill="#bec8d9"/><rect x="443.75" y="236.67" width="29.58" height="29.58" fill="#b1bdd2"/><rect x="414.17" y="266.25" width="29.58" height="29.58" fill="#ffffff"/><rect x="443.75" y="266.25" width="29.58" height="29.58" fill="#ffffff"/><rect x="473.3333333333333" y="236.66666666666666" width="59.166666666666664" height="59.166666666666664" fill="#ffffff"/><rect x="502.92" y="236.67" width="29.58" height="29.58" fill="#f7f8fa"/><rect x="473.33" y="266.25" width="29.58" height="29.58" fill="#ffffff"/><rect x="502.92" y="266.25" width="29.58" height="29.58" fill="#899bbb"/><rect x="532.5" y="236.66666666666666" width="59.166666666666664" height="59.166666666666664" fill="#ffffff"/><rect x="532.5" y="236.67" width="29.58" height="29.58" fill="#dce2eb"/><rect x="562.08" y="236.67" width="29.58" height="29.58" fill="#ffffff"/><rect x="532.5" y="266.25" width="29.58" height="29.58" fill="#ffffff"/><rect x="562.08" y="266.25" width="29.58" height="29.58" fill="#c9d1e0"/><rect x="591.6666666666666" y="236.66666666666666" width="59.166666666666664" height="59.166666666666664" fill="#ffffff"/><rect x="591.67" y="236.67" width="29.58" height="29.58" fill="#ffffff"/><rect x="621.25" y="236.67" width="29.58" height="29.58" fill="#ffffff"/><rect x="591.67" y="266.25" width="29.58" height="29.58" fill="#f2f4f7"/><rect x="621.25" y="266.25" width="29.58" height="29.58" fill="#ffffff"/><rect x="0" y="295.8333333333333" width="59.166666666666664" height="59.166666666666664" fill="#ffffff"/><rect x="0" y="295.83" width="29.58" height="29.58" fill="#758aaf"/><rect x="29.58" y="295.83" width="29.58" height="29.58" fill="#ffffff"/><rect x="0" y="325.42" width="29.58" height="29.58" fill="#ffffff"/><rect x="29.58" y="325.42" width="29.58" height="29.58" fill="#5f78a2"/><rect x="59.166666666666664" y="295.8333333333333" width="59.166666666666664" height="59.166666666666664" fill="#ffffff"/><rect x="59.17" y="295.83" width="29.58" height="29.58" fill="#ffffff"/><rect x="88.75" y="295.83" width="29.58" height="29.58" fill="#8094b5"/><rect x="59.17" y="325.42" width="29.58" height="29.58" fill="#8c9ebc"/><rect x="88.75" y="325.42" width="29.58" height="29.58" fill="#9aaac5"/><rect x="118.33333333333333" y="295.8333333333333" width="59.166666666666664" height="59.166666666666664" fill="#ffffff"/><rect x="118.33" y="295.83" width="29.58" height="29.58" fill="#7f93b5"/><rect x="147.92" y="295.83" width="29.58" height="29.58" fill="#ffffff"/><rect x="118.33" y="325.42" width="29.58" height="29.58" fill="#ffffff"/><rect x="147.92" y="325.42" width="29.58" height="29.58" fill="#6f86ac"/><rect x="177.5" y="295.8333333333333" width="59.166666666666664" height="59.166666666666664" fill="#ffffff"/><rect x="177.5" y="295.83" width="29.58" height="29.58" fill="#f0f3f6"/><rect x="207.08" y="295.83" width="29.58" height="29.58" fill="#ffffff"/><rect x="177.5" y="325.42" width="29.58" height="29.58" fill="#dee3ec"/><rect x="207.08" y="325.42" width="29.58" height="29.58" fill="#4e6998"/><rect x="236.66666666666666" y="295.8333333333333" width="59.166666666666664" height="59.166666666666664" fill="#ffffff"/><rect x="236.67" y="295.83" width="29.58" height="29.58" fill="#ffffff"/><rect x="266.25" y="295.83" width="29.58" height="29.58" fill="#8d9ebd"/><rect x="236.67" y="325.42" width="29.58" height="29.58" fill="#ffffff"/><rect x="266.25" y="325.42" width="29.58" height="29.58" fill="#ccd4e1"/><rect x="295.8333333333333" y="295.8333333333333" width="59.166666666666664" height="59.166666666666664" fill="#ffffff"/><rect x="295.83" y="295.83" width="29.58" height="29.58" fill="#ffffff"/><rect x="325.42" y="295.83" width="29.58" height="29.58" fill="#ffffff"/><rect x="295.83" y="325.42" width="29.58" height="29.58" fill="#ffffff"/><rect x="325.42" y="325.42" width="29.58" height="29.58" fill="#ffffff"/><rect x="355" y="295.8333333333333" width="59.166666666666664" height="59.166666666666664" fill="#ffffff"/><rect x="355" y="295.83" width="29.58" height="29.58" fill="#6f85ab"/><rect x="384.58" y="295.83" width="29.58" height="29.58" fill="#ffffff"/><rect x="355" y="325.42" width="29.58" height="29.58" fill="#ffffff"/><rect x="384.58" y="325.42" width="29.58" height="29.58" fill="#8b9dbc"/><rect x="414.16666666666663" y="295.8333333333333" width="59.166666666666664" height="59.166666666666664" fill="#ffffff"/><rect x="414.17" y="295.83" width="29.58" height="29.58" fill="#ffffff"/><rect x="443.75" y="295.83" width="29.58" height="29.58" fill="#d4dbe6"/><rect x="414.17" y="325.42" width="29.58" height="29.58" fill="#95a6c2"/><rect x="443.75" y="325.42" width="29.58" height="29.58" fill="#96a7c2"/><rect x="473.3333333333333" y="295.8333333333333" width="59.166666666666664" height="59.166666666666664" fill="#ffffff"/><rect x="473.33" y="295.83" width="29.58" height="29.58" fill="#ffffff"/><rect x="502.92" y="295.83" width="29.58" height="29.58" fill="#ffffff"/><rect x="473.33" y="325.42" width="29.58" height="29.58" fill="#ffffff"/><rect x="502.92" y="325.42" width="29.58" height="29.58" fill="#ffffff"/><rect x="532.5" y="295.8333333333333" width="59.166666666666664" height="59.166666666666664" fill="#ffffff"/><rect x="532.5" y="295.83" width="29.58" height="29.58" fill="#ffffff"/><rect x="562.08" y="295.83" width="29.58" height="29.58" fill="#ffffff"/><rect x="532.5" y="325.42" width="29.58" height="29.58" fill="#ffffff"/><rect x="562.08" y="325.42" width="29.58" height="29.58" fill="#ffffff"/><rect x="591.6666666666666" y="295.8333333333333" width="59.166666666666664" height="59.166666666666664" fill="#ffffff"/><rect x="591.67" y="295.83" width="29.58" height="29.58" fill="#ffffff"/><rect x="621.25" y="295.83" width="29.58" height="29.58" fill="#ffffff"/><rect x="591.67" y="325.42" width="29.58" height="29.58" fill="#ffffff"/><rect x="621.25" y="325.42" width="29.58" height="29.58" fill="#ffffff"/></g></svg>