<?xml version="1.0" standalone="no"?><svg xmlns:xlink="http://www.w3.org/1999/xlink" xmlns="http://www.w3.org/2000/svg" viewBox="0 0 1000 545.4598702610886" preserveAspectRatio="xMaxYMax slice"><g transform="scale(1.8304022491982839)"><rect x="0" y="0" width="546.3333333333333" height="298" fill="#ffffff"/><rect x="99.33333333333333" y="49.666666666666664" width="49.666666666666664" height="49.666666666666664" fill="#ffffff"/><rect x="496.66666666666663" y="49.666666666666664" width="49.666666666666664" height="49.666666666666664" fill="#ffffff"/><rect x="521.5" y="49.67" width="24.83" height="24.83" fill="#94b2a3"/><rect x="99.33333333333333" y="99.33333333333333" width="49.666666666666664" height="49.666666666666664" fill="#ffffff"/><rect x="99.33" y="99.33" width="24.83" height="24.83" fill="#f3f6f4"/><rect x="99.33" y="124.17" width="24.83" height="24.83" fill="#ffffff"/><rect x="198.66666666666666" y="99.33333333333333" width="49.666666666666664" height="49.666666666666664" fill="#ffffff"/><rect x="198.67" y="99.33" width="24.83" height="24.83" fill="#ebf0ed"/><rect x="223.5" y="99.33" width="24.83" height="24.83" fill="#ffffff"/><rect x="198.67" y="124.17" width="24.83" height="24.83" fill="#f6f9f7"/><rect x="397.3333333333333" y="99.33333333333333" width="49.666666666666664" height="49.666666666666664" fill="#ffffff"/><rect x="397.33" y="99.33" width="24.83" height="24.83" fill="#5c8b73"/><rect x="422.17" y="124.17" width="24.83" height="24.83" fill="#f3f6f5"/><rect x="49.666666666666664" y="149" width="49.666666666666664" height="49.666666666666664" fill="#ffffff"/><rect x="49.67" y="149" width="24.83" height="24.83" fill="#d2dfd8"/><rect x="49.67" y="173.83" width="24.83" height="24.83" fill="#ffffff"/><rect x="74.5" y="173.83" width="24.83" height="24.83" fill="#bed0c7"/><rect x="99.33333333333333" y="149" width="49.666666666666664" height="49.666666666666664" fill="#ffffff"/><rect x="99.33" y="149" width="24.83" height="24.83" fill="#ffffff"/><rect x="124.17" y="149" width="24.83" height="24.83" fill="#ffffff"/><rect x="124.17" y="173.83" width="24.83" height="24.83" fill="#739b86"/><rect x="248.33333333333331" y="149" width="49.666666666666664" height="49.666666666666664" fill="#ffffff"/><rect x="248.33" y="149" width="24.83" height="24.83" fill="#ffffff"/><rect x="273.17" y="149" width="24.83" height="24.83" fill="#64907a"/><rect x="248.33" y="173.83" width="24.83" height="24.83" fill="#a9c2b5"/><rect x="273.17" y="173.83" width="24.83" height="24.83" fill="#fefefe"/><rect x="298" y="149" width="49.666666666666664" height="49.666666666666664" fill="#ffffff"/><rect x="298" y="149" width="24.83" height="24.83" fill="#6a957f"/><rect x="322.83" y="149" width="24.83" height="24.83" fill="#ffffff"/><rect x="298" y="173.83" width="24.83" height="24.83" fill="#ffffff"/><rect x="347.66666666666663" y="149" width="49.666666666666664" height="49.666666666666664" fill="#ffffff"/><rect x="347.67" y="149" width="24.83" height="24.83" fill="#789f8b"/><rect x="372.5" y="149" width="24.83" height="24.83" fill="#ffffff"/><rect x="347.67" y="173.83" width="24.83" height="24.83" fill="#ffffff"/><rect x="372.5" y="173.83" width="24.83" height="24.83" fill="#ffffff"/><rect x="397.3333333333333" y="149" width="49.666666666666664" height="49.666666666666664" fill="#ffffff"/><rect x="422.17" y="149" width="24.83" height="24.83" fill="#98b6a7"/><rect x="397.33" y="173.83" width="24.83" height="24.83" fill="#ffffff"/><rect x="422.17" y="173.83" width="24.83" height="24.83" fill="#85a896"/><rect x="447" y="149" width="49.666666666666664" height="49.666666666666664" fill="#ffffff"/><rect x="447" y="173.83" width="24.83" height="24.83" fill="#ffffff"/><rect x="0" y="198.66666666666666" width="49.666666666666664" height="49.666666666666664" fill="#ffffff"/><rect x="0" y="198.67" width="24.83" height="24.83" fill="#789f8b"/><rect x="24.83" y="198.67" width="24.83" height="24.83" fill="#ffffff"/><rect x="0" y="223.5" width="24.83" height="24.83" fill="#ffffff"/><rect x="24.83" y="223.5" width="24.83" height="24.83" fill="#ffffff"/><rect x="49.666666666666664" y="198.66666666666666" width="49.666666666666664" height="49.666666666666664" fill="#ffffff"/><rect x="49.67" y="198.67" width="24.83" height="24.83" fill="#6f9983"/><rect x="74.5" y="198.67" width="24.83" height="24.83" fill="#759d88"/><rect x="74.5" y="223.5" width="24.83" height="24.83" fill="#8eae9e"/><rect x="99.33333333333333" y="198.66666666666666" width="49.666666666666664" height="49.666666666666664" fill="#ffffff"/><rect x="99.33" y="198.67" width="24.83" height="24.83" fill="#ffffff"/><rect x="124.17" y="198.67" width="24.83" height="24.83" fill="#ffffff"/><rect x="99.33" y="223.5" width="24.83" height="24.83" fill="#ffffff"/><rect x="124.17" y="223.5" width="24.83" height="24.83" fill="#cbdad2"/><rect x="149" y="198.66666666666666" width="49.666666666666664" height="49.666666666666664" fill="#ffffff"/><rect x="149" y="198.67" width="24.83" height="24.83" fill="#ffffff"/><rect x="173.83" y="198.67" width="24.83" height="24.83" fill="#ffffff"/><rect x="149" y="223.5" width="24.83" height="24.83" fill="#ffffff"/><rect x="173.83" y="223.5" width="24.83" height="24.83" fill="#8bac9b"/><rect x="198.66666666666666" y="198.66666666666666" width="49.666666666666664" height="49.666666666666664" fill="#ffffff"/><rect x="198.67" y="198.67" width="24.83" height="24.83" fill="#f5f8f6"/><rect x="223.5" y="198.67" width="24.83" height="24.83" fill="#ffffff"/><rect x="223.5" y="223.5" width="24.83" height="24.83" fill="#c2d3ca"/><rect x="248.33333333333331" y="198.66666666666666" width="49.666666666666664" height="49.666666666666664" fill="#ffffff"/><rect x="248.33" y="198.67" width="24.83" height="24.83" fill="#c4d5cc"/><rect x="273.17" y="198.67" width="24.83" height="24.83" fill="#ffffff"/><rect x="248.33" y="223.5" width="24.83" height="24.83" fill="#ffffff"/><rect x="298" y="198.66666666666666" width="49.666666666666664" height="49.666666666666664" fill="#ffffff"/><rect x="322.83" y="198.67" width="24.83" height="24.83" fill="#ffffff"/><rect x="298" y="223.5" width="24.83" height="24.83" fill="#d2dfd9"/><rect x="322.83" y="223.5" width="24.83" height="24.83" fill="#ffffff"/><rect x="347.66666666666663" y="198.66666666666666" width="49.666666666666664" height="49.666666666666664" fill="#ffffff"/><rect x="347.67" y="198.67" width="24.83" height="24.83" fill="#ffffff"/><rect x="372.5" y="198.67" width="24.83" height="24.83" fill="#ffffff"/><rect x="347.67" y="223.5" width="24.83" height="24.83" fill="#7ba18e"/><rect x="372.5" y="223.5" width="24.83" height="24.83" fill="#ffffff"/><rect x="496.66666666666663" y="198.66666666666666" width="49.666666666666664" height="49.666666666666664" fill="#ffffff"/><rect x="521.5" y="198.67" width="24.83" height="24.83" fill="#ffffff"/><rect x="0" y="248.33333333333331" width="49.666666666666664" height="49.666666666666664" fill="#ffffff"/><rect x="0" y="248.33" width="24.83" height="24.83" fill="#ffffff"/><rect x="24.83" y="248.33" width="24.83" height="24.83" fill="#f4f7f6"/><rect x="0" y="273.17" width="24.83" height="24.83" fill="#92b1a1"/><rect x="24.83" y="273.17" width="24.83" height="24.83" fill="#8eaf9e"/><rect x="49.666666666666664" y="248.33333333333331" width="49.666666666666664" height="49.666666666666664" fill="#ffffff"/><rect x="49.67" y="248.33" width="24.83" height="24.83" fill="#a4beb1"/><rect x="74.5" y="248.33" width="24.83" height="24.83" fill="#ffffff"/><rect x="49.67" y="273.17" width="24.83" height="24.83" fill="#ffffff"/><rect x="74.5" y="273.17" width="24.83" height="24.83" fill="#ffffff"/><rect x="99.33333333333333" y="248.33333333333331" width="49.666666666666664" height="49.666666666666664" fill="#ffffff"/><rect x="99.33" y="248.33" width="24.83" height="24.83" fill="#5d8c74"/><rect x="124.17" y="248.33" width="24.83" height="24.83" fill="#bed1c7"/><rect x="99.33" y="273.17" width="24.83" height="24.83" fill="#ffffff"/><rect x="124.17" y="273.17" width="24.83" height="24.83" fill="#b9cdc3"/><rect x="149" y="248.33333333333331" width="49.666666666666664" height="49.666666666666664" fill="#ffffff"/><rect x="149" y="248.33" width="24.83" height="24.83" fill="#f4f7f5"/><rect x="173.83" y="248.33" width="24.83" height="24.83" fill="#8cad9c"/><rect x="149" y="273.17" width="24.83" height="24.83" fill="#c3d4cc"/><rect x="173.83" y="273.17" width="24.83" height="24.83" fill="#ffffff"/><rect x="198.66666666666666" y="248.33333333333331" width="49.666666666666664" height="49.666666666666664" fill="#ffffff"/><rect x="198.67" y="248.33" width="24.83" height="24.83" fill="#618f77"/><rect x="223.5" y="248.33" width="24.83" height="24.83" fill="#ffffff"/><rect x="198.67" y="273.17" width="24.83" height="24.83" fill="#779e8a"/><rect x="223.5" y="273.17" width="24.83" height="24.83" fill="#fbfcfb"/><rect x="248.33333333333331" y="248.33333333333331" width="49.666666666666664" height="49.666666666666664" fill="#ffffff"/><rect x="248.33" y="248.33" width="24.83" height="24.83" fill="#95b4a4"/><rect x="273.17" y="248.33" width="24.83" height="24.83" fill="#bed1c7"/><rect x="248.33" y="273.17" width="24.83" height="24.83" fill="#ffffff"/><rect x="273.17" y="273.17" width="24.83" height="24.83" fill="#ffffff"/><rect x="298" y="248.33333333333331" width="49.666666666666664" height="49.666666666666664" fill="#ffffff"/><rect x="298" y="248.33" width="24.83" height="24.83" fill="#ffffff"/><rect x="322.83" y="248.33" width="24.83" height="24.83" fill="#ffffff"/><rect x="298" y="273.17" width="24.83" height="24.83" fill="#ffffff"/><rect x="322.83" y="273.17" width="24.83" height="24.83" fill="#ffffff"/><rect x="347.66666666666663" y="248.33333333333331" width="49.666666666666664" height="49.666666666666664" fill="#ffffff"/><rect x="347.67" y="248.33" width="24.83" height="24.83" fill="#ffffff"/><rect x="372.5" y="248.33" width="24.83" height="24.83" fill="#ffffff"/><rect x="347.67" y="273.17" width="24.83" height="24.83" fill="#759c88"/><rect x="372.5" y="273.17" width="24.83" height="24.83" fill="#618e77"/><rect x="397.3333333333333" y="248.33333333333331" width="49.666666666666664" height="49.666666666666664" fill="#ffffff"/><rect x="397.33" y="248.33" width="24.83" height="24.83" fill="#ffffff"/><rect x="422.17" y="248.33" width="24.83" height="24.83" fill="#d4e0da"/><rect x="397.33" y="273.17" width="24.83" height="24.83" fill="#b5cabf"/><rect x="422.17" y="273.17" width="24.83" height="24.83" fill="#ffffff"/><rect x="447" y="248.33333333333331" width="49.666666666666664" height="49.666666666666664" fill="#ffffff"/><rect x="447" y="248.33" width="24.83" height="24.83" fill="#9bb8a9"/><rect x="471.83" y="248.33" width="24.83" height="24.83" fill="#749c87"/><rect x="447" y="273.17" width="24.83" height="24.83" fill="#ffffff"/><rect x="471.83" y="273.17" width="24.83" height="24.83" fill="#ffffff"/><rect x="496.66666666666663" y="248.33333333333331" width="49.666666666666664" height="49.666666666666664" fill="#ffffff"/><rect x="496.67" y="248.33" width="24.83" height="24.83" fill="#799f8c"/><rect x="521.5" y="248.33" width="24.83" height="24.83" fill="#ffffff"/><rect x="496.67" y="273.17" width="24.83" height="24.83" fill="#afc6bb"/><rect x="521.5" y="273.17" width="24.83" height="24.83" fill="#7ba18d"/></g></svg>