<?xml version="1.0" standalone="no"?><svg xmlns:xlink="http://www.w3.org/1999/xlink" xmlns="http://www.w3.org/2000/svg" viewBox="0 0 1000 545.4590152851445" preserveAspectRatio="xMaxYMax slice"><g transform="scale(1.5365042684088577)"><rect x="0" y="0" width="650.8333333333333" height="355" fill="#ffffff"/><path d="M 0 0 A 59.17 59.17 0 0 1  59.17 59.17 L 0 0 A 59.17 59.17 0 0 0 59.17 59.17" fill="#77ecee"/><rect x="177.5" y="0" width="59.166666666666664" height="59.166666666666664" fill="#ffffff"/><path d="M 177.5 29.58 A 29.58 29.58 0 0 1  207.07999999999998 0 L 177.5 29.58 A 29.58 29.58 0 0 0 207.07999999999998 0" fill="#b4f5f6"/><path d="M 177.5 29.58 A 29.58 29.58 0 0 1  207.07999999999998 59.16 L 177.5 29.58 A 29.58 29.58 0 0 0 207.07999999999998 59.16" fill="#9ef1f3"/><path d="M 177.5 118.34 A 59.17 59.17 0 0 1  236.67000000000002 59.17 L 177.5 118.34 A 59.17 59.17 0 0 0 236.67000000000002 59.17" fill="#3de4e7"/><path d="M 355 118.34 A 59.17 59.17 0 0 1  414.17 59.17 L 355 118.34 A 59.17 59.17 0 0 0 414.17 59.17" fill="#e0fbfb"/><path d="M 414.17 118.34 A 59.17 59.17 0 0 1  473.34000000000003 59.17 L 414.17 118.34 A 59.17 59.17 0 0 0 473.34000000000003 59.17" fill="#9ef2f3"/><rect x="59.166666666666664" y="118.33333333333333" width="59.166666666666664" height="59.166666666666664" fill="#ffffff"/><path d="M 59.17 177.5 A 29.58 29.58 0 0 1  88.75 147.92 L 59.17 177.5 A 29.58 29.58 0 0 0 88.75 147.92" fill="#1ee0e3"/><path d="M 236.67 177.5 A 59.17 59.17 0 0 1  295.84 118.33 L 236.67 177.5 A 59.17 59.17 0 0 0 295.84 118.33" fill="#6aeaec"/><rect x="414.16666666666663" y="118.33333333333333" width="59.166666666666664" height="59.166666666666664" fill="#ffffff"/><path d="M 414.17 118.33 A 29.58 29.58 0 0 1  443.75 147.91 L 414.17 118.33 A 29.58 29.58 0 0 0 443.75 147.91" fill="#38e3e6"/><path d="M 443.75 118.33 A 29.58 29.58 0 0 1  473.33 147.91 L 443.75 118.33 A 29.58 29.58 0 0 0 473.33 147.91" fill="#a4f2f4"/><path d="M 414.17 177.5 A 29.58 29.58 0 0 1  443.75 147.92 L 414.17 177.5 A 29.58 29.58 0 0 0 443.75 147.92" fill="#88eff0"/><path d="M 177.5 177.5 A 59.17 59.17 0 0 1  236.67000000000002 236.67000000000002 L 177.5 177.5 A 59.17 59.17 0 0 0 236.67000000000002 236.67000000000002" fill="#52e7e9"/><rect x="236.66666666666666" y="295.8333333333333" width="59.166666666666664" height="59.166666666666664" fill="#ffffff"/><path d="M 266.25 355 A 29.58 29.58 0 0 1  295.83 325.42 L 266.25 355 A 29.58 29.58 0 0 0 295.83 325.42" fill="#39e4e6"/></g></svg>