<?xml version="1.0" standalone="no"?><svg xmlns:xlink="http://www.w3.org/1999/xlink" xmlns="http://www.w3.org/2000/svg" viewBox="0 0 1000 545.4590152851445" preserveAspectRatio="xMaxYMax slice"><g transform="scale(1.5365042684088577)"><rect x="0" y="0" width="650.8333333333333" height="355" fill="#ffffff"/><path d="M 0 59.17 A 59.17 59.17 0 0 1  59.17 0 L 0 59.17 A 59.17 59.17 0 0 0 59.17 0" fill="#f5fefe"/><rect x="236.66666666666666" y="0" width="59.166666666666664" height="59.166666666666664" fill="#ffffff"/><path d="M 236.67 29.58 A 29.58 29.58 0 0 1  266.25 0 L 236.67 29.58 A 29.58 29.58 0 0 0 266.25 0" fill="#89eff0"/><path d="M 266.25 29.58 A 29.58 29.58 0 0 1  295.83 59.16 L 266.25 29.58 A 29.58 29.58 0 0 0 295.83 59.16" fill="#c5f7f8"/><path d="M 295.83 0 A 59.17 59.17 0 0 1  355 59.17 L 295.83 0 A 59.17 59.17 0 0 0 355 59.17" fill="#f0fdfd"/><rect x="355" y="0" width="59.166666666666664" height="59.166666666666664" fill="#ffffff"/><path d="M 384.58 0 A 29.58 29.58 0 0 1  414.15999999999997 29.58 L 384.58 0 A 29.58 29.58 0 0 0 414.15999999999997 29.58" fill="#41e5e7"/><rect x="414.16666666666663" y="0" width="59.166666666666664" height="59.166666666666664" fill="#ffffff"/><path d="M 414.17 29.58 A 29.58 29.58 0 0 1  443.75 0 L 414.17 29.58 A 29.58 29.58 0 0 0 443.75 0" fill="#a8f3f4"/><path d="M 443.75 29.58 A 29.58 29.58 0 0 1  473.33 0 L 443.75 29.58 A 29.58 29.58 0 0 0 473.33 0" fill="#aaf3f4"/><path d="M 177.5 118.34 A 59.17 59.17 0 0 1  236.67000000000002 59.17 L 177.5 118.34 A 59.17 59.17 0 0 0 236.67000000000002 59.17" fill="#c1f6f7"/><path d="M 295.83 59.17 A 59.17 59.17 0 0 1  355 118.34 L 295.83 59.17 A 59.17 59.17 0 0 0 355 118.34" fill="#cbf8f8"/><rect x="355" y="59.166666666666664" width="59.166666666666664" height="59.166666666666664" fill="#ffffff"/><path d="M 355 88.75 A 29.58 29.58 0 0 1  384.58 118.33 L 355 88.75 A 29.58 29.58 0 0 0 384.58 118.33" fill="#4de6e9"/><rect x="473.3333333333333" y="59.166666666666664" width="59.166666666666664" height="59.166666666666664" fill="#ffffff"/><path d="M 473.33 88.75 A 29.58 29.58 0 0 1  502.90999999999997 59.17 L 473.33 88.75 A 29.58 29.58 0 0 0 502.90999999999997 59.17" fill="#c5f7f8"/><path d="M 502.92 88.75 A 29.58 29.58 0 0 1  532.5 118.33 L 502.92 88.75 A 29.58 29.58 0 0 0 532.5 118.33" fill="#acf4f5"/><path d="M 473.33 177.5 A 59.17 59.17 0 0 1  532.5 118.33 L 473.33 177.5 A 59.17 59.17 0 0 0 532.5 118.33" fill="#f3fdfd"/><rect x="532.5" y="118.33333333333333" width="59.166666666666664" height="59.166666666666664" fill="#ffffff"/><path d="M 532.5 118.33 A 29.58 29.58 0 0 1  562.08 147.91 L 532.5 118.33 A 29.58 29.58 0 0 0 562.08 147.91" fill="#51e7e9"/><rect x="591.6666666666666" y="118.33333333333333" width="59.166666666666664" height="59.166666666666664" fill="#ffffff"/><rect x="236.66666666666666" y="177.5" width="59.166666666666664" height="59.166666666666664" fill="#ffffff"/><path d="M 236.67 177.5 A 29.58 29.58 0 0 1  266.25 207.07999999999998 L 236.67 177.5 A 29.58 29.58 0 0 0 266.25 207.07999999999998" fill="#3ce4e7"/><rect x="177.5" y="236.66666666666666" width="59.166666666666664" height="59.166666666666664" fill="#ffffff"/><path d="M 414.17 236.67 A 59.17 59.17 0 0 1  473.34000000000003 295.84 L 414.17 236.67 A 59.17 59.17 0 0 0 473.34000000000003 295.84" fill="#dcfafb"/><path d="M 473.33 236.67 A 59.17 59.17 0 0 1  532.5 295.84 L 473.33 236.67 A 59.17 59.17 0 0 0 532.5 295.84" fill="#5be8ea"/><path d="M 532.5 295.84 A 59.17 59.17 0 0 1  591.67 236.67 L 532.5 295.84 A 59.17 59.17 0 0 0 591.67 236.67" fill="#f9fefe"/><rect x="0" y="295.8333333333333" width="59.166666666666664" height="59.166666666666664" fill="#ffffff"/><path d="M 59.17 295.83 A 59.17 59.17 0 0 1  118.34 355 L 59.17 295.83 A 59.17 59.17 0 0 0 118.34 355" fill="#bcf6f7"/></g></svg>