<?xml version="1.0" standalone="no"?><svg xmlns:xlink="http://www.w3.org/1999/xlink" xmlns="http://www.w3.org/2000/svg" viewBox="0 0 1000 545.4590152851445" preserveAspectRatio="xMaxYMax slice"><g transform="scale(1.5365042684088577)"><rect x="0" y="0" width="650.8333333333333" height="355" fill="#ffffff"/><rect x="0" y="59.166666666666664" width="59.166666666666664" height="59.166666666666664" fill="#ffffff"/><rect x="0" y="88.75" width="29.58" height="29.58" fill="#ffdce4"/><rect x="0" y="118.33333333333333" width="59.166666666666664" height="59.166666666666664" fill="#ffffff"/><rect x="0" y="118.33" width="29.58" height="29.58" fill="#ff6a8e"/><rect x="29.58" y="147.92" width="29.58" height="29.58" fill="#ffadc1"/><rect x="414.16666666666663" y="118.33333333333333" width="59.166666666666664" height="59.166666666666664" fill="#ffffff"/><rect x="414.17" y="118.33" width="29.58" height="29.58" fill="#ffacbf"/><rect x="414.17" y="147.92" width="29.58" height="29.58" fill="#ff5b82"/><rect x="591.6666666666666" y="118.33333333333333" width="59.166666666666664" height="59.166666666666664" fill="#ffffff"/><rect x="621.25" y="118.33" width="29.58" height="29.58" fill="#ffdde5"/><rect x="621.25" y="147.92" width="29.58" height="29.58" fill="#ffc3d1"/><rect x="0" y="177.5" width="59.166666666666664" height="59.166666666666664" fill="#ffffff"/><rect x="0" y="177.5" width="29.58" height="29.58" fill="#ff3867"/><rect x="29.58" y="177.5" width="29.58" height="29.58" fill="#ffc8d5"/><rect x="0" y="207.08" width="29.58" height="29.58" fill="#ff7e9c"/><rect x="59.166666666666664" y="177.5" width="59.166666666666664" height="59.166666666666664" fill="#ffffff"/><rect x="88.75" y="177.5" width="29.58" height="29.58" fill="#fbf9f7"/><rect x="59.17" y="207.08" width="29.58" height="29.58" fill="#f8f5f1"/><rect x="88.75" y="207.08" width="29.58" height="29.58" fill="#ffbbcb"/><rect x="118.33333333333333" y="177.5" width="59.166666666666664" height="59.166666666666664" fill="#ffffff"/><rect x="147.92" y="177.5" width="29.58" height="29.58" fill="#faf8f6"/><rect x="118.33" y="207.08" width="29.58" height="29.58" fill="#f8f6f2"/><rect x="177.5" y="177.5" width="59.166666666666664" height="59.166666666666664" fill="#ffffff"/><rect x="177.5" y="177.5" width="29.58" height="29.58" fill="#ff5f85"/><rect x="295.8333333333333" y="177.5" width="59.166666666666664" height="59.166666666666664" fill="#ffffff"/><rect x="295.83" y="177.5" width="29.58" height="29.58" fill="#ffafc2"/><rect x="295.83" y="207.08" width="29.58" height="29.58" fill="#fefefe"/><rect x="325.42" y="207.08" width="29.58" height="29.58" fill="#ffa8bd"/><rect x="355" y="177.5" width="59.166666666666664" height="59.166666666666664" fill="#ffffff"/><rect x="355" y="177.5" width="29.58" height="29.58" fill="#ff6489"/><rect x="384.58" y="177.5" width="29.58" height="29.58" fill="#f9f6f3"/><rect x="355" y="207.08" width="29.58" height="29.58" fill="#ff6288"/><rect x="384.58" y="207.08" width="29.58" height="29.58" fill="#ffe0e7"/><rect x="414.16666666666663" y="177.5" width="59.166666666666664" height="59.166666666666664" fill="#ffffff"/><rect x="414.17" y="177.5" width="29.58" height="29.58" fill="#ff436f"/><rect x="443.75" y="177.5" width="29.58" height="29.58" fill="#fefefd"/><rect x="414.17" y="207.08" width="29.58" height="29.58" fill="#fcfaf9"/><rect x="473.3333333333333" y="177.5" width="59.166666666666664" height="59.166666666666664" fill="#ffffff"/><rect x="502.92" y="177.5" width="29.58" height="29.58" fill="#fcfaf9"/><rect x="502.92" y="207.08" width="29.58" height="29.58" fill="#ffc9d6"/><rect x="532.5" y="177.5" width="59.166666666666664" height="59.166666666666664" fill="#ffffff"/><rect x="532.5" y="207.08" width="29.58" height="29.58" fill="#fcfbf9"/><rect x="591.6666666666666" y="177.5" width="59.166666666666664" height="59.166666666666664" fill="#ffffff"/><rect x="621.25" y="177.5" width="29.58" height="29.58" fill="#ffd3de"/><rect x="0" y="236.66666666666666" width="59.166666666666664" height="59.166666666666664" fill="#ffffff"/><rect x="0" y="236.67" width="29.58" height="29.58" fill="#faf8f5"/><rect x="29.58" y="236.67" width="29.58" height="29.58" fill="#fff4f7"/><rect x="0" y="266.25" width="29.58" height="29.58" fill="#fdfcfb"/><rect x="29.58" y="266.25" width="29.58" height="29.58" fill="#ffecf1"/><rect x="59.166666666666664" y="236.66666666666666" width="59.166666666666664" height="59.166666666666664" fill="#ffffff"/><rect x="59.17" y="236.67" width="29.58" height="29.58" fill="#fefefd"/><rect x="88.75" y="236.67" width="29.58" height="29.58" fill="#f9f6f2"/><rect x="59.17" y="266.25" width="29.58" height="29.58" fill="#fefefd"/><rect x="88.75" y="266.25" width="29.58" height="29.58" fill="#ffcdd9"/><rect x="118.33333333333333" y="236.66666666666666" width="59.166666666666664" height="59.166666666666664" fill="#ffffff"/><rect x="118.33" y="236.67" width="29.58" height="29.58" fill="#ffcad7"/><rect x="118.33" y="266.25" width="29.58" height="29.58" fill="#f9f6f3"/><rect x="147.92" y="266.25" width="29.58" height="29.58" fill="#fbf9f7"/><rect x="177.5" y="236.66666666666666" width="59.166666666666664" height="59.166666666666664" fill="#ffffff"/><rect x="177.5" y="236.67" width="29.58" height="29.58" fill="#faf8f5"/><rect x="177.5" y="266.25" width="29.58" height="29.58" fill="#ff7797"/><rect x="207.08" y="266.25" width="29.58" height="29.58" fill="#f9f6f3"/><rect x="236.66666666666666" y="236.66666666666666" width="59.166666666666664" height="59.166666666666664" fill="#ffffff"/><rect x="236.67" y="236.67" width="29.58" height="29.58" fill="#fefefd"/><rect x="266.25" y="236.67" width="29.58" height="29.58" fill="#ffc5d3"/><rect x="236.67" y="266.25" width="29.58" height="29.58" fill="#fbfaf8"/><rect x="266.25" y="266.25" width="29.58" height="29.58" fill="#ff96af"/><rect x="295.8333333333333" y="236.66666666666666" width="59.166666666666664" height="59.166666666666664" fill="#ffffff"/><rect x="295.83" y="236.67" width="29.58" height="29.58" fill="#fffbfc"/><rect x="325.42" y="236.67" width="29.58" height="29.58" fill="#ffe2e9"/><rect x="295.83" y="266.25" width="29.58" height="29.58" fill="#fcfaf8"/><rect x="325.42" y="266.25" width="29.58" height="29.58" fill="#fefefe"/><rect x="414.16666666666663" y="236.66666666666666" width="59.166666666666664" height="59.166666666666664" fill="#ffffff"/><rect x="414.17" y="236.67" width="29.58" height="29.58" fill="#fdfcfb"/><rect x="414.17" y="266.25" width="29.58" height="29.58" fill="#f9f7f3"/><rect x="443.75" y="266.25" width="29.58" height="29.58" fill="#fcfbfa"/><rect x="473.3333333333333" y="236.66666666666666" width="59.166666666666664" height="59.166666666666664" fill="#ffffff"/><rect x="473.33" y="236.67" width="29.58" height="29.58" fill="#fff4f7"/><rect x="502.92" y="236.67" width="29.58" height="29.58" fill="#fefdfd"/><rect x="473.33" y="266.25" width="29.58" height="29.58" fill="#fbf9f7"/><rect x="502.92" y="266.25" width="29.58" height="29.58" fill="#fefdfc"/><rect x="532.5" y="236.66666666666666" width="59.166666666666664" height="59.166666666666664" fill="#ffffff"/><rect x="532.5" y="236.67" width="29.58" height="29.58" fill="#f8f5f1"/><rect x="532.5" y="266.25" width="29.58" height="29.58" fill="#fefdfc"/><rect x="562.08" y="266.25" width="29.58" height="29.58" fill="#ff90aa"/><rect x="591.6666666666666" y="236.66666666666666" width="59.166666666666664" height="59.166666666666664" fill="#ffffff"/><rect x="621.25" y="236.67" width="29.58" height="29.58" fill="#fdfcfa"/><rect x="591.67" y="266.25" width="29.58" height="29.58" fill="#faf8f5"/><rect x="621.25" y="266.25" width="29.58" height="29.58" fill="#ffffff"/><rect x="0" y="295.8333333333333" width="59.166666666666664" height="59.166666666666664" fill="#ffffff"/><rect x="0" y="295.83" width="29.58" height="29.58" fill="#fbf9f6"/><rect x="29.58" y="295.83" width="29.58" height="29.58" fill="#fdfcfb"/><rect x="0" y="325.42" width="29.58" height="29.58" fill="#fffffe"/><rect x="29.58" y="325.42" width="29.58" height="29.58" fill="#ffffff"/><rect x="59.166666666666664" y="295.8333333333333" width="59.166666666666664" height="59.166666666666664" fill="#ffffff"/><rect x="59.17" y="295.83" width="29.58" height="29.58" fill="#fff5f7"/><rect x="88.75" y="295.83" width="29.58" height="29.58" fill="#ffe2e9"/><rect x="59.17" y="325.42" width="29.58" height="29.58" fill="#ffd2dd"/><rect x="88.75" y="325.42" width="29.58" height="29.58" fill="#fefefe"/><rect x="118.33333333333333" y="295.8333333333333" width="59.166666666666664" height="59.166666666666664" fill="#ffffff"/><rect x="118.33" y="295.83" width="29.58" height="29.58" fill="#ff83a1"/><rect x="147.92" y="295.83" width="29.58" height="29.58" fill="#ffebf0"/><rect x="118.33" y="325.42" width="29.58" height="29.58" fill="#f8f6f2"/><rect x="147.92" y="325.42" width="29.58" height="29.58" fill="#ff5b82"/><rect x="177.5" y="295.8333333333333" width="59.166666666666664" height="59.166666666666664" fill="#ffffff"/><rect x="177.5" y="295.83" width="29.58" height="29.58" fill="#ffd2dd"/><rect x="207.08" y="295.83" width="29.58" height="29.58" fill="#ffccd8"/><rect x="177.5" y="325.42" width="29.58" height="29.58" fill="#ffbbcb"/><rect x="207.08" y="325.42" width="29.58" height="29.58" fill="#fcfbfa"/><rect x="236.66666666666666" y="295.8333333333333" width="59.166666666666664" height="59.166666666666664" fill="#ffffff"/><rect x="236.67" y="295.83" width="29.58" height="29.58" fill="#faf8f5"/><rect x="266.25" y="295.83" width="29.58" height="29.58" fill="#ff4370"/><rect x="236.67" y="325.42" width="29.58" height="29.58" fill="#faf8f5"/><rect x="266.25" y="325.42" width="29.58" height="29.58" fill="#ffb2c4"/><rect x="295.8333333333333" y="295.8333333333333" width="59.166666666666664" height="59.166666666666664" fill="#ffffff"/><rect x="295.83" y="295.83" width="29.58" height="29.58" fill="#f9f6f3"/><rect x="325.42" y="295.83" width="29.58" height="29.58" fill="#fbfaf8"/><rect x="295.83" y="325.42" width="29.58" height="29.58" fill="#fdfdfc"/><rect x="325.42" y="325.42" width="29.58" height="29.58" fill="#ffa7bc"/><rect x="355" y="295.8333333333333" width="59.166666666666664" height="59.166666666666664" fill="#ffffff"/><rect x="355" y="295.83" width="29.58" height="29.58" fill="#ffeff3"/><rect x="384.58" y="295.83" width="29.58" height="29.58" fill="#ff5e84"/><rect x="355" y="325.42" width="29.58" height="29.58" fill="#ff4571"/><rect x="384.58" y="325.42" width="29.58" height="29.58" fill="#ffccd8"/><rect x="414.16666666666663" y="295.8333333333333" width="59.166666666666664" height="59.166666666666664" fill="#ffffff"/><rect x="414.17" y="295.83" width="29.58" height="29.58" fill="#ffe0e7"/><rect x="443.75" y="295.83" width="29.58" height="29.58" fill="#fefefe"/><rect x="414.17" y="325.42" width="29.58" height="29.58" fill="#ffdce4"/><rect x="443.75" y="325.42" width="29.58" height="29.58" fill="#fdfcfa"/><rect x="473.3333333333333" y="295.8333333333333" width="59.166666666666664" height="59.166666666666664" fill="#ffffff"/><rect x="473.33" y="295.83" width="29.58" height="29.58" fill="#ffeff3"/><rect x="502.92" y="295.83" width="29.58" height="29.58" fill="#fffefe"/><rect x="473.33" y="325.42" width="29.58" height="29.58" fill="#f9f6f3"/><rect x="502.92" y="325.42" width="29.58" height="29.58" fill="#ff517a"/><rect x="532.5" y="295.8333333333333" width="59.166666666666664" height="59.166666666666664" fill="#ffffff"/><rect x="532.5" y="295.83" width="29.58" height="29.58" fill="#fcfbf9"/><rect x="562.08" y="295.83" width="29.58" height="29.58" fill="#faf8f6"/><rect x="532.5" y="325.42" width="29.58" height="29.58" fill="#f9f7f4"/><rect x="562.08" y="325.42" width="29.58" height="29.58" fill="#ffbbcb"/><rect x="591.6666666666666" y="295.8333333333333" width="59.166666666666664" height="59.166666666666664" fill="#ffffff"/><rect x="591.67" y="295.83" width="29.58" height="29.58" fill="#ffd8e1"/><rect x="621.25" y="295.83" width="29.58" height="29.58" fill="#ffeff3"/><rect x="591.67" y="325.42" width="29.58" height="29.58" fill="#ffeff3"/><rect x="621.25" y="325.42" width="29.58" height="29.58" fill="#ff8ea9"/></g></svg>