<?xml version="1.0" standalone="no"?><svg xmlns:xlink="http://www.w3.org/1999/xlink" xmlns="http://www.w3.org/2000/svg" viewBox="0 0 1000 545.4590152851445" preserveAspectRatio="xMaxYMax slice"><g transform="scale(1.5365042684088577)"><rect x="0" y="0" width="650.8333333333333" height="355" fill="#ffffff"/><rect x="0" y="59.166666666666664" width="59.166666666666664" height="59.166666666666664" fill="#ffffff"/><rect x="0" y="88.75" width="29.58" height="29.58" fill="#ffffff"/><rect x="59.166666666666664" y="59.166666666666664" width="59.166666666666664" height="59.166666666666664" fill="#ffffff"/><rect x="59.17" y="88.75" width="29.58" height="29.58" fill="#ffffff"/><rect x="591.6666666666666" y="59.166666666666664" width="59.166666666666664" height="59.166666666666664" fill="#ffffff"/><rect x="0" y="118.33333333333333" width="59.166666666666664" height="59.166666666666664" fill="#ffffff"/><rect x="0" y="118.33" width="29.58" height="29.58" fill="#ffffff"/><rect x="29.58" y="118.33" width="29.58" height="29.58" fill="#942727"/><rect x="0" y="147.92" width="29.58" height="29.58" fill="#fcfafa"/><rect x="118.33333333333333" y="118.33333333333333" width="59.166666666666664" height="59.166666666666664" fill="#ffffff"/><rect x="295.8333333333333" y="118.33333333333333" width="59.166666666666664" height="59.166666666666664" fill="#ffffff"/><rect x="473.3333333333333" y="118.33333333333333" width="59.166666666666664" height="59.166666666666664" fill="#ffffff"/><rect x="502.92" y="147.92" width="29.58" height="29.58" fill="#9c3636"/><rect x="591.6666666666666" y="118.33333333333333" width="59.166666666666664" height="59.166666666666664" fill="#ffffff"/><rect x="591.67" y="118.33" width="29.58" height="29.58" fill="#a95151"/><rect x="59.166666666666664" y="177.5" width="59.166666666666664" height="59.166666666666664" fill="#ffffff"/><rect x="59.17" y="177.5" width="29.58" height="29.58" fill="#880f0f"/><rect x="88.75" y="177.5" width="29.58" height="29.58" fill="#9b3535"/><rect x="59.17" y="207.08" width="29.58" height="29.58" fill="#bd7a7a"/><rect x="88.75" y="207.08" width="29.58" height="29.58" fill="#ffffff"/><rect x="118.33333333333333" y="177.5" width="59.166666666666664" height="59.166666666666664" fill="#ffffff"/><rect x="118.33" y="177.5" width="29.58" height="29.58" fill="#ffffff"/><rect x="147.92" y="177.5" width="29.58" height="29.58" fill="#ffffff"/><rect x="177.5" y="177.5" width="59.166666666666664" height="59.166666666666664" fill="#ffffff"/><rect x="177.5" y="177.5" width="29.58" height="29.58" fill="#e7cfcf"/><rect x="207.08" y="177.5" width="29.58" height="29.58" fill="#810101"/><rect x="177.5" y="207.08" width="29.58" height="29.58" fill="#ffffff"/><rect x="207.08" y="207.08" width="29.58" height="29.58" fill="#ffffff"/><rect x="295.8333333333333" y="177.5" width="59.166666666666664" height="59.166666666666664" fill="#ffffff"/><rect x="295.83" y="207.08" width="29.58" height="29.58" fill="#ffffff"/><rect x="325.42" y="207.08" width="29.58" height="29.58" fill="#ffffff"/><rect x="355" y="177.5" width="59.166666666666664" height="59.166666666666664" fill="#ffffff"/><rect x="384.58" y="177.5" width="29.58" height="29.58" fill="#ffffff"/><rect x="355" y="207.08" width="29.58" height="29.58" fill="#ffffff"/><rect x="384.58" y="207.08" width="29.58" height="29.58" fill="#c58a8a"/><rect x="473.3333333333333" y="177.5" width="59.166666666666664" height="59.166666666666664" fill="#ffffff"/><rect x="473.33" y="177.5" width="29.58" height="29.58" fill="#9f3d3d"/><rect x="473.33" y="207.08" width="29.58" height="29.58" fill="#ffffff"/><rect x="532.5" y="177.5" width="59.166666666666664" height="59.166666666666664" fill="#ffffff"/><rect x="532.5" y="177.5" width="29.58" height="29.58" fill="#e6cccc"/><rect x="532.5" y="207.08" width="29.58" height="29.58" fill="#ffffff"/><rect x="591.6666666666666" y="177.5" width="59.166666666666664" height="59.166666666666664" fill="#ffffff"/><rect x="591.67" y="177.5" width="29.58" height="29.58" fill="#ffffff"/><rect x="621.25" y="207.08" width="29.58" height="29.58" fill="#ffffff"/><rect x="0" y="236.66666666666666" width="59.166666666666664" height="59.166666666666664" fill="#ffffff"/><rect x="0" y="236.67" width="29.58" height="29.58" fill="#eedddd"/><rect x="29.58" y="236.67" width="29.58" height="29.58" fill="#ffffff"/><rect x="59.166666666666664" y="236.66666666666666" width="59.166666666666664" height="59.166666666666664" fill="#ffffff"/><rect x="59.17" y="236.67" width="29.58" height="29.58" fill="#9f3d3d"/><rect x="59.17" y="266.25" width="29.58" height="29.58" fill="#a74e4e"/><rect x="118.33333333333333" y="236.66666666666666" width="59.166666666666664" height="59.166666666666664" fill="#ffffff"/><rect x="118.33" y="236.67" width="29.58" height="29.58" fill="#ffffff"/><rect x="147.92" y="236.67" width="29.58" height="29.58" fill="#8c1717"/><rect x="147.92" y="266.25" width="29.58" height="29.58" fill="#aa5454"/><rect x="177.5" y="236.66666666666666" width="59.166666666666664" height="59.166666666666664" fill="#ffffff"/><rect x="177.5" y="236.67" width="29.58" height="29.58" fill="#ffffff"/><rect x="207.08" y="236.67" width="29.58" height="29.58" fill="#870b0b"/><rect x="177.5" y="266.25" width="29.58" height="29.58" fill="#ffffff"/><rect x="207.08" y="266.25" width="29.58" height="29.58" fill="#ffffff"/><rect x="355" y="236.66666666666666" width="59.166666666666664" height="59.166666666666664" fill="#ffffff"/><rect x="355" y="236.67" width="29.58" height="29.58" fill="#f4e9e9"/><rect x="384.58" y="236.67" width="29.58" height="29.58" fill="#ffffff"/><rect x="355" y="266.25" width="29.58" height="29.58" fill="#9e3a3a"/><rect x="384.58" y="266.25" width="29.58" height="29.58" fill="#f1e2e2"/><rect x="414.16666666666663" y="236.66666666666666" width="59.166666666666664" height="59.166666666666664" fill="#ffffff"/><rect x="414.17" y="236.67" width="29.58" height="29.58" fill="#ffffff"/><rect x="414.17" y="266.25" width="29.58" height="29.58" fill="#ffffff"/><rect x="443.75" y="266.25" width="29.58" height="29.58" fill="#ffffff"/><rect x="473.3333333333333" y="236.66666666666666" width="59.166666666666664" height="59.166666666666664" fill="#ffffff"/><rect x="473.33" y="236.67" width="29.58" height="29.58" fill="#ffffff"/><rect x="502.92" y="236.67" width="29.58" height="29.58" fill="#d09f9f"/><rect x="473.33" y="266.25" width="29.58" height="29.58" fill="#ffffff"/><rect x="502.92" y="266.25" width="29.58" height="29.58" fill="#ffffff"/><rect x="532.5" y="236.66666666666666" width="59.166666666666664" height="59.166666666666664" fill="#ffffff"/><rect x="532.5" y="236.67" width="29.58" height="29.58" fill="#ffffff"/><rect x="562.08" y="236.67" width="29.58" height="29.58" fill="#ffffff"/><rect x="532.5" y="266.25" width="29.58" height="29.58" fill="#e1c2c2"/><rect x="562.08" y="266.25" width="29.58" height="29.58" fill="#ffffff"/><rect x="591.6666666666666" y="236.66666666666666" width="59.166666666666664" height="59.166666666666664" fill="#ffffff"/><rect x="621.25" y="236.67" width="29.58" height="29.58" fill="#ad5959"/><rect x="591.67" y="266.25" width="29.58" height="29.58" fill="#ffffff"/><rect x="621.25" y="266.25" width="29.58" height="29.58" fill="#ffffff"/><rect x="0" y="295.8333333333333" width="59.166666666666664" height="59.166666666666664" fill="#ffffff"/><rect x="0" y="295.83" width="29.58" height="29.58" fill="#faf5f5"/><rect x="29.58" y="295.83" width="29.58" height="29.58" fill="#ffffff"/><rect x="0" y="325.42" width="29.58" height="29.58" fill="#ffffff"/><rect x="29.58" y="325.42" width="29.58" height="29.58" fill="#ffffff"/><rect x="59.166666666666664" y="295.8333333333333" width="59.166666666666664" height="59.166666666666664" fill="#ffffff"/><rect x="59.17" y="295.83" width="29.58" height="29.58" fill="#ffffff"/><rect x="88.75" y="295.83" width="29.58" height="29.58" fill="#ffffff"/><rect x="59.17" y="325.42" width="29.58" height="29.58" fill="#ffffff"/><rect x="88.75" y="325.42" width="29.58" height="29.58" fill="#c78d8d"/><rect x="118.33333333333333" y="295.8333333333333" width="59.166666666666664" height="59.166666666666664" fill="#ffffff"/><rect x="118.33" y="295.83" width="29.58" height="29.58" fill="#ffffff"/><rect x="147.92" y="295.83" width="29.58" height="29.58" fill="#ffffff"/><rect x="118.33" y="325.42" width="29.58" height="29.58" fill="#a95151"/><rect x="147.92" y="325.42" width="29.58" height="29.58" fill="#a84f4f"/><rect x="177.5" y="295.8333333333333" width="59.166666666666664" height="59.166666666666664" fill="#ffffff"/><rect x="177.5" y="295.83" width="29.58" height="29.58" fill="#c28484"/><rect x="207.08" y="295.83" width="29.58" height="29.58" fill="#ffffff"/><rect x="177.5" y="325.42" width="29.58" height="29.58" fill="#952929"/><rect x="207.08" y="325.42" width="29.58" height="29.58" fill="#ffffff"/><rect x="236.66666666666666" y="295.8333333333333" width="59.166666666666664" height="59.166666666666664" fill="#ffffff"/><rect x="236.67" y="295.83" width="29.58" height="29.58" fill="#ffffff"/><rect x="266.25" y="295.83" width="29.58" height="29.58" fill="#c07f7f"/><rect x="236.67" y="325.42" width="29.58" height="29.58" fill="#952828"/><rect x="266.25" y="325.42" width="29.58" height="29.58" fill="#d7afaf"/><rect x="295.8333333333333" y="295.8333333333333" width="59.166666666666664" height="59.166666666666664" fill="#ffffff"/><rect x="295.83" y="295.83" width="29.58" height="29.58" fill="#ffffff"/><rect x="325.42" y="295.83" width="29.58" height="29.58" fill="#f2e4e4"/><rect x="295.83" y="325.42" width="29.58" height="29.58" fill="#ffffff"/><rect x="325.42" y="325.42" width="29.58" height="29.58" fill="#ffffff"/><rect x="355" y="295.8333333333333" width="59.166666666666664" height="59.166666666666664" fill="#ffffff"/><rect x="355" y="295.83" width="29.58" height="29.58" fill="#ffffff"/><rect x="384.58" y="295.83" width="29.58" height="29.58" fill="#fdfbfb"/><rect x="355" y="325.42" width="29.58" height="29.58" fill="#ffffff"/><rect x="384.58" y="325.42" width="29.58" height="29.58" fill="#8b1515"/><rect x="414.16666666666663" y="295.8333333333333" width="59.166666666666664" height="59.166666666666664" fill="#ffffff"/><rect x="414.17" y="295.83" width="29.58" height="29.58" fill="#ffffff"/><rect x="443.75" y="295.83" width="29.58" height="29.58" fill="#ebd7d7"/><rect x="414.17" y="325.42" width="29.58" height="29.58" fill="#e7cfcf"/><rect x="443.75" y="325.42" width="29.58" height="29.58" fill="#ffffff"/><rect x="473.3333333333333" y="295.8333333333333" width="59.166666666666664" height="59.166666666666664" fill="#ffffff"/><rect x="473.33" y="295.83" width="29.58" height="29.58" fill="#ffffff"/><rect x="502.92" y="295.83" width="29.58" height="29.58" fill="#ffffff"/><rect x="473.33" y="325.42" width="29.58" height="29.58" fill="#ffffff"/><rect x="502.92" y="325.42" width="29.58" height="29.58" fill="#ffffff"/><rect x="532.5" y="295.8333333333333" width="59.166666666666664" height="59.166666666666664" fill="#ffffff"/><rect x="532.5" y="295.83" width="29.58" height="29.58" fill="#ffffff"/><rect x="562.08" y="295.83" width="29.58" height="29.58" fill="#ba7474"/><rect x="532.5" y="325.42" width="29.58" height="29.58" fill="#cd9a9a"/><rect x="562.08" y="325.42" width="29.58" height="29.58" fill="#b86e6e"/><rect x="591.6666666666666" y="295.8333333333333" width="59.166666666666664" height="59.166666666666664" fill="#ffffff"/><rect x="591.67" y="295.83" width="29.58" height="29.58" fill="#dcb8b8"/><rect x="621.25" y="295.83" width="29.58" height="29.58" fill="#f6ecec"/><rect x="591.67" y="325.42" width="29.58" height="29.58" fill="#ae5a5a"/><rect x="621.25" y="325.42" width="29.58" height="29.58" fill="#880f0f"/></g></svg>