<?xml version="1.0" standalone="no"?><svg xmlns:xlink="http://www.w3.org/1999/xlink" xmlns="http://www.w3.org/2000/svg" viewBox="0 0 1000 545.4590152851445" preserveAspectRatio="xMaxYMax slice"><g transform="scale(1.5365042684088577)"><rect x="0" y="0" width="650.8333333333333" height="355" fill="#ffffff"/><rect x="177.5" y="118.33333333333333" width="59.166666666666664" height="59.166666666666664" fill="#ffffff"/><rect x="177.5" y="118.33" width="29.58" height="29.58" fill="#ffffff"/><rect x="177.5" y="147.92" width="29.58" height="29.58" fill="#fcf798"/><rect x="207.08" y="147.92" width="29.58" height="29.58" fill="#ffffff"/><rect x="295.8333333333333" y="118.33333333333333" width="59.166666666666664" height="59.166666666666664" fill="#ffffff"/><rect x="295.83" y="118.33" width="29.58" height="29.58" fill="#ffffff"/><rect x="325.42" y="147.92" width="29.58" height="29.58" fill="#fefde6"/><rect x="414.16666666666663" y="118.33333333333333" width="59.166666666666664" height="59.166666666666664" fill="#ffffff"/><rect x="443.75" y="118.33" width="29.58" height="29.58" fill="#ffffff"/><rect x="414.17" y="147.92" width="29.58" height="29.58" fill="#faf266"/><rect x="443.75" y="147.92" width="29.58" height="29.58" fill="#fcf7a1"/><rect x="0" y="177.5" width="59.166666666666664" height="59.166666666666664" fill="#ffffff"/><rect x="0" y="177.5" width="29.58" height="29.58" fill="#fcf691"/><rect x="0" y="207.08" width="29.58" height="29.58" fill="#fffef6"/><rect x="29.58" y="207.08" width="29.58" height="29.58" fill="#ffffff"/><rect x="59.166666666666664" y="177.5" width="59.166666666666664" height="59.166666666666664" fill="#ffffff"/><rect x="88.75" y="177.5" width="29.58" height="29.58" fill="#ffffff"/><rect x="88.75" y="207.08" width="29.58" height="29.58" fill="#ffffff"/><rect x="177.5" y="177.5" width="59.166666666666664" height="59.166666666666664" fill="#ffffff"/><rect x="177.5" y="177.5" width="29.58" height="29.58" fill="#fdfabe"/><rect x="177.5" y="207.08" width="29.58" height="29.58" fill="#ffffff"/><rect x="236.66666666666666" y="177.5" width="59.166666666666664" height="59.166666666666664" fill="#ffffff"/><rect x="236.67" y="177.5" width="29.58" height="29.58" fill="#fbf478"/><rect x="236.67" y="207.08" width="29.58" height="29.58" fill="#ffffff"/><rect x="266.25" y="207.08" width="29.58" height="29.58" fill="#ffffff"/><rect x="295.8333333333333" y="177.5" width="59.166666666666664" height="59.166666666666664" fill="#ffffff"/><rect x="325.42" y="177.5" width="29.58" height="29.58" fill="#fdf9b0"/><rect x="325.42" y="207.08" width="29.58" height="29.58" fill="#fdf9b7"/><rect x="414.16666666666663" y="177.5" width="59.166666666666664" height="59.166666666666664" fill="#ffffff"/><rect x="414.17" y="177.5" width="29.58" height="29.58" fill="#ffffff"/><rect x="443.75" y="207.08" width="29.58" height="29.58" fill="#ffffff"/><rect x="473.3333333333333" y="177.5" width="59.166666666666664" height="59.166666666666664" fill="#ffffff"/><rect x="473.33" y="177.5" width="29.58" height="29.58" fill="#ffffff"/><rect x="502.92" y="207.08" width="29.58" height="29.58" fill="#ffffff"/><rect x="532.5" y="177.5" width="59.166666666666664" height="59.166666666666664" fill="#ffffff"/><rect x="562.08" y="177.5" width="29.58" height="29.58" fill="#ffffff"/><rect x="562.08" y="207.08" width="29.58" height="29.58" fill="#f9ef3d"/><rect x="591.6666666666666" y="177.5" width="59.166666666666664" height="59.166666666666664" fill="#ffffff"/><rect x="591.67" y="177.5" width="29.58" height="29.58" fill="#ffffff"/><rect x="621.25" y="177.5" width="29.58" height="29.58" fill="#fbf68f"/><rect x="591.67" y="207.08" width="29.58" height="29.58" fill="#fffef6"/><rect x="0" y="236.66666666666666" width="59.166666666666664" height="59.166666666666664" fill="#ffffff"/><rect x="29.58" y="236.67" width="29.58" height="29.58" fill="#ffffff"/><rect x="0" y="266.25" width="29.58" height="29.58" fill="#fcf799"/><rect x="118.33333333333333" y="236.66666666666666" width="59.166666666666664" height="59.166666666666664" fill="#ffffff"/><rect x="147.92" y="236.67" width="29.58" height="29.58" fill="#fbf581"/><rect x="118.33" y="266.25" width="29.58" height="29.58" fill="#f8ec17"/><rect x="177.5" y="236.66666666666666" width="59.166666666666664" height="59.166666666666664" fill="#ffffff"/><rect x="177.5" y="236.67" width="29.58" height="29.58" fill="#f9ee35"/><rect x="177.5" y="266.25" width="29.58" height="29.58" fill="#fbf586"/><rect x="207.08" y="266.25" width="29.58" height="29.58" fill="#fefde9"/><rect x="236.66666666666666" y="236.66666666666666" width="59.166666666666664" height="59.166666666666664" fill="#ffffff"/><rect x="236.67" y="236.67" width="29.58" height="29.58" fill="#f7ea05"/><rect x="266.25" y="236.67" width="29.58" height="29.58" fill="#ffffff"/><rect x="236.67" y="266.25" width="29.58" height="29.58" fill="#f9ee36"/><rect x="266.25" y="266.25" width="29.58" height="29.58" fill="#ffffff"/><rect x="295.8333333333333" y="236.66666666666666" width="59.166666666666664" height="59.166666666666664" fill="#ffffff"/><rect x="295.83" y="236.67" width="29.58" height="29.58" fill="#f9ef41"/><rect x="295.83" y="266.25" width="29.58" height="29.58" fill="#ffffff"/><rect x="325.42" y="266.25" width="29.58" height="29.58" fill="#ffffff"/><rect x="355" y="236.66666666666666" width="59.166666666666664" height="59.166666666666664" fill="#ffffff"/><rect x="355" y="236.67" width="29.58" height="29.58" fill="#faf15a"/><rect x="384.58" y="266.25" width="29.58" height="29.58" fill="#ffffff"/><rect x="414.16666666666663" y="236.66666666666666" width="59.166666666666664" height="59.166666666666664" fill="#ffffff"/><rect x="414.17" y="236.67" width="29.58" height="29.58" fill="#f9ee36"/><rect x="414.17" y="266.25" width="29.58" height="29.58" fill="#fdfac1"/><rect x="443.75" y="266.25" width="29.58" height="29.58" fill="#ffffff"/><rect x="473.3333333333333" y="236.66666666666666" width="59.166666666666664" height="59.166666666666664" fill="#ffffff"/><rect x="473.33" y="236.67" width="29.58" height="29.58" fill="#f9ee30"/><rect x="502.92" y="236.67" width="29.58" height="29.58" fill="#ffffff"/><rect x="473.33" y="266.25" width="29.58" height="29.58" fill="#fffef7"/><rect x="502.92" y="266.25" width="29.58" height="29.58" fill="#fcf7a2"/><rect x="532.5" y="236.66666666666666" width="59.166666666666664" height="59.166666666666664" fill="#ffffff"/><rect x="532.5" y="236.67" width="29.58" height="29.58" fill="#ffffff"/><rect x="562.08" y="236.67" width="29.58" height="29.58" fill="#ffffff"/><rect x="532.5" y="266.25" width="29.58" height="29.58" fill="#fdf9bc"/><rect x="562.08" y="266.25" width="29.58" height="29.58" fill="#ffffff"/><rect x="591.6666666666666" y="236.66666666666666" width="59.166666666666664" height="59.166666666666664" fill="#ffffff"/><rect x="591.67" y="236.67" width="29.58" height="29.58" fill="#fefce1"/><rect x="591.67" y="266.25" width="29.58" height="29.58" fill="#ffffff"/><rect x="621.25" y="266.25" width="29.58" height="29.58" fill="#f8ed20"/><rect x="0" y="295.8333333333333" width="59.166666666666664" height="59.166666666666664" fill="#ffffff"/><rect x="0" y="295.83" width="29.58" height="29.58" fill="#fffffd"/><rect x="29.58" y="295.83" width="29.58" height="29.58" fill="#fcf8aa"/><rect x="0" y="325.42" width="29.58" height="29.58" fill="#f8ed25"/><rect x="29.58" y="325.42" width="29.58" height="29.58" fill="#f7ea04"/><rect x="59.166666666666664" y="295.8333333333333" width="59.166666666666664" height="59.166666666666664" fill="#ffffff"/><rect x="59.17" y="295.83" width="29.58" height="29.58" fill="#ffffff"/><rect x="88.75" y="295.83" width="29.58" height="29.58" fill="#ffffff"/><rect x="59.17" y="325.42" width="29.58" height="29.58" fill="#ffffff"/><rect x="88.75" y="325.42" width="29.58" height="29.58" fill="#f8ec1b"/><rect x="118.33333333333333" y="295.8333333333333" width="59.166666666666664" height="59.166666666666664" fill="#ffffff"/><rect x="118.33" y="295.83" width="29.58" height="29.58" fill="#f9ef3b"/><rect x="147.92" y="295.83" width="29.58" height="29.58" fill="#f9ef39"/><rect x="118.33" y="325.42" width="29.58" height="29.58" fill="#fcf8ae"/><rect x="147.92" y="325.42" width="29.58" height="29.58" fill="#f9ef38"/><rect x="177.5" y="295.8333333333333" width="59.166666666666664" height="59.166666666666664" fill="#ffffff"/><rect x="177.5" y="295.83" width="29.58" height="29.58" fill="#ffffff"/><rect x="207.08" y="295.83" width="29.58" height="29.58" fill="#ffffff"/><rect x="177.5" y="325.42" width="29.58" height="29.58" fill="#ffffff"/><rect x="207.08" y="325.42" width="29.58" height="29.58" fill="#ffffff"/><rect x="236.66666666666666" y="295.8333333333333" width="59.166666666666664" height="59.166666666666664" fill="#ffffff"/><rect x="236.67" y="295.83" width="29.58" height="29.58" fill="#f9f049"/><rect x="266.25" y="295.83" width="29.58" height="29.58" fill="#fdf9b6"/><rect x="236.67" y="325.42" width="29.58" height="29.58" fill="#ffffff"/><rect x="266.25" y="325.42" width="29.58" height="29.58" fill="#fefde7"/><rect x="295.8333333333333" y="295.8333333333333" width="59.166666666666664" height="59.166666666666664" fill="#ffffff"/><rect x="295.83" y="295.83" width="29.58" height="29.58" fill="#ffffff"/><rect x="325.42" y="295.83" width="29.58" height="29.58" fill="#ffffff"/><rect x="295.83" y="325.42" width="29.58" height="29.58" fill="#ffffff"/><rect x="325.42" y="325.42" width="29.58" height="29.58" fill="#fcf79e"/><rect x="355" y="295.8333333333333" width="59.166666666666664" height="59.166666666666664" fill="#ffffff"/><rect x="355" y="295.83" width="29.58" height="29.58" fill="#ffffff"/><rect x="384.58" y="295.83" width="29.58" height="29.58" fill="#fdfbcd"/><rect x="355" y="325.42" width="29.58" height="29.58" fill="#f9ef37"/><rect x="384.58" y="325.42" width="29.58" height="29.58" fill="#f8ed20"/><rect x="414.16666666666663" y="295.8333333333333" width="59.166666666666664" height="59.166666666666664" fill="#ffffff"/><rect x="414.17" y="295.83" width="29.58" height="29.58" fill="#ffffff"/><rect x="443.75" y="295.83" width="29.58" height="29.58" fill="#f8ee2f"/><rect x="414.17" y="325.42" width="29.58" height="29.58" fill="#ffffff"/><rect x="443.75" y="325.42" width="29.58" height="29.58" fill="#faf25f"/><rect x="473.3333333333333" y="295.8333333333333" width="59.166666666666664" height="59.166666666666664" fill="#ffffff"/><rect x="473.33" y="295.83" width="29.58" height="29.58" fill="#f7eb0f"/><rect x="502.92" y="295.83" width="29.58" height="29.58" fill="#ffffff"/><rect x="473.33" y="325.42" width="29.58" height="29.58" fill="#f8ed1e"/><rect x="502.92" y="325.42" width="29.58" height="29.58" fill="#fefde4"/><rect x="532.5" y="295.8333333333333" width="59.166666666666664" height="59.166666666666664" fill="#ffffff"/><rect x="532.5" y="295.83" width="29.58" height="29.58" fill="#ffffff"/><rect x="562.08" y="295.83" width="29.58" height="29.58" fill="#ffffff"/><rect x="532.5" y="325.42" width="29.58" height="29.58" fill="#ffffff"/><rect x="562.08" y="325.42" width="29.58" height="29.58" fill="#fbf589"/><rect x="591.6666666666666" y="295.8333333333333" width="59.166666666666664" height="59.166666666666664" fill="#ffffff"/><rect x="591.67" y="295.83" width="29.58" height="29.58" fill="#f7eb06"/><rect x="621.25" y="295.83" width="29.58" height="29.58" fill="#fdf9bb"/><rect x="591.67" y="325.42" width="29.58" height="29.58" fill="#ffffff"/><rect x="621.25" y="325.42" width="29.58" height="29.58" fill="#ffffff"/></g></svg>